<mxfile host="app.diagrams.net" agent="Mozilla/5.0 (Windows NT 10.0; Win64; x64) AppleWebKit/537.36 (KHTML, like Gecko) Chrome/134.0.0.0 Safari/537.36" version="26.1.1">
  <diagram name="PÃ¡gina-1" id="g5dmlJWxKQBjWdOeU63H">
    <mxGraphModel dx="880" dy="460" grid="1" gridSize="10" guides="1" tooltips="1" connect="1" arrows="1" fold="1" page="1" pageScale="1" pageWidth="827" pageHeight="1169" math="0" shadow="0">
      <root>
        <mxCell id="0" />
        <mxCell id="1" parent="0" />
        <mxCell id="YyXNov0lEvGkZqQAGX_Z-3" value="" style="edgeStyle=orthogonalEdgeStyle;rounded=0;orthogonalLoop=1;jettySize=auto;html=1;" edge="1" parent="1" source="YyXNov0lEvGkZqQAGX_Z-1" target="YyXNov0lEvGkZqQAGX_Z-2">
          <mxGeometry relative="1" as="geometry" />
        </mxCell>
        <mxCell id="YyXNov0lEvGkZqQAGX_Z-1" value="inicio" style="ellipse;whiteSpace=wrap;html=1;fillColor=#f8cecc;strokeColor=#b85450;" vertex="1" parent="1">
          <mxGeometry x="354" y="10" width="120" height="80" as="geometry" />
        </mxCell>
        <mxCell id="YyXNov0lEvGkZqQAGX_Z-5" value="" style="edgeStyle=orthogonalEdgeStyle;rounded=0;orthogonalLoop=1;jettySize=auto;html=1;" edge="1" parent="1" source="YyXNov0lEvGkZqQAGX_Z-2" target="YyXNov0lEvGkZqQAGX_Z-4">
          <mxGeometry relative="1" as="geometry" />
        </mxCell>
        <mxCell id="YyXNov0lEvGkZqQAGX_Z-2" value="cotacao, valorreais" style="shape=parallelogram;perimeter=parallelogramPerimeter;whiteSpace=wrap;html=1;fixedSize=1;fillColor=#f8cecc;strokeColor=#b85450;" vertex="1" parent="1">
          <mxGeometry x="354" y="137" width="120" height="60" as="geometry" />
        </mxCell>
        <mxCell id="YyXNov0lEvGkZqQAGX_Z-7" value="" style="edgeStyle=orthogonalEdgeStyle;rounded=0;orthogonalLoop=1;jettySize=auto;html=1;" edge="1" parent="1" source="YyXNov0lEvGkZqQAGX_Z-4" target="YyXNov0lEvGkZqQAGX_Z-6">
          <mxGeometry relative="1" as="geometry" />
        </mxCell>
        <mxCell id="YyXNov0lEvGkZqQAGX_Z-4" value="resultado = (valorreais/cotacao)" style="whiteSpace=wrap;html=1;fillColor=#f8cecc;strokeColor=#b85450;" vertex="1" parent="1">
          <mxGeometry x="354" y="261" width="120" height="60" as="geometry" />
        </mxCell>
        <mxCell id="YyXNov0lEvGkZqQAGX_Z-9" value="" style="edgeStyle=orthogonalEdgeStyle;rounded=0;orthogonalLoop=1;jettySize=auto;html=1;" edge="1" parent="1" source="YyXNov0lEvGkZqQAGX_Z-6" target="YyXNov0lEvGkZqQAGX_Z-8">
          <mxGeometry relative="1" as="geometry" />
        </mxCell>
        <mxCell id="YyXNov0lEvGkZqQAGX_Z-6" value="resultado" style="shape=document;whiteSpace=wrap;html=1;boundedLbl=1;fillColor=#f8cecc;strokeColor=#b85450;" vertex="1" parent="1">
          <mxGeometry x="354" y="391" width="120" height="80" as="geometry" />
        </mxCell>
        <mxCell id="YyXNov0lEvGkZqQAGX_Z-8" value="fim" style="ellipse;whiteSpace=wrap;html=1;fillColor=#f8cecc;strokeColor=#b85450;" vertex="1" parent="1">
          <mxGeometry x="374" y="531" width="80" height="80" as="geometry" />
        </mxCell>
      </root>
    </mxGraphModel>
  </diagram>
</mxfile>
